<svg version="1.0" xmlns="http://www.w3.org/2000/svg" width="682.667" height="682.667" viewBox="0 0 512 512"><path d="M146 1.6C142.4 4 36.4 109.8 32.9 114.4c-1.9 2.6-2.9 5.1-2.9 7.5 0 3.4 4.3 7.9 97.8 101.3l97.7 97.8h9l52-52 52-52h8.6c13.8 0 26.7-4.4 39.3-13.4 6.3-4.5 17.9-16 21-20.9l1.8-2.7h47.5c51.8 0 51.6 0 54.2-5.7.8-1.6 1.1-22.8 1.1-67.4 0-70.5.1-69.2-5.5-71.7-1.8-.9-12-1.2-35-1.2h-32.4l-2.8 2.4c-2.4 2.1-2.9 3.3-3.3 9.3l-.5 6.8-16.2.3-16.2.2-2.5 3.1c-1.6 1.8-2.6 4.3-2.6 6.1v3.1l-5.7-.6c-9.1-1-16-3.9-35.3-14.7-23-12.9-52.4-27.4-62-30.4-11-3.5-24.8-4.9-35.3-3.6-9.9 1.2-12.1 1.9-42.2 12.8l-22 8L175 19.5c-9.6-9.5-18.5-17.8-19.7-18.4-3.1-1.6-6.5-1.4-9.3.5zm16.2 34.1c6 5.9 10.8 11.1 10.8 11.4 0 .4-2.4 1.7-5.2 3-4.6 2.1-6.8 2.4-16.8 2.4s-12.2-.3-16.7-2.4c-2.9-1.3-5.3-2.6-5.3-3 0-.7 21.2-22.1 22-22.1.2 0 5.3 4.8 11.2 10.7zm119.9 1.8c3.1.8 8.3 2.6 11.5 4.1 10.1 4.4 40.5 19.9 50.5 25.7 20.4 11.8 29 15.2 42.4 17.2l8 1.1.3 39.9.2 39.9-3.7 5.4c-5.7 8.3-15.6 16.8-25.1 21.5-8 3.9-9.1 4.2-18.6 4.5-18.8.7-32.8-4.8-46-18.2l-8.1-8.2-39.5-13.3c-21.7-7.4-41.4-14.3-43.7-15.3-7.5-3.5-14.3-12.8-14.3-19.8 0-6.5 5.8-15.2 11.7-17.6 6.6-2.8 10.9-1.9 58 13.1 25.2 8 47 14.5 48.6 14.5 4.5 0 8.7-4.8 8.7-10 0-6.5-2.3-8-22.6-14.4-9.8-3.2-26.2-8.4-36.4-11.6l-18.5-5.9-18.8-18.9-18.8-18.8 12.3-4.3c6.8-2.5 15.7-5.8 19.8-7.4 14.4-5.7 28.3-6.7 42.1-3.2zM492 107v53h-39V54h39v53zM117.8 63.9c16.5 11.5 44.8 12.1 64.1 1.4l6.3-3.5 10.4 10.3c9.8 9.8 10.3 10.5 8.2 11.3-13.5 5.4-18.1 8.6-23.5 16.3-2.6 3.8-4.4 5.4-6.7 5.8-7.4 1.6-19.5 8.5-25.8 14.9-11.1 11-16.8 24.8-16.8 40.4 0 15.1 4.8 27.6 14.8 38.3 23 24.8 60 24.9 83.5.1 5.2-5.5 12.7-18.4 12.7-21.9 0-2 1.2-1.7 18.2 3.9l15.8 5.2-.6 9.6c-.8 12.5 1.2 21.8 6.9 33.2l4.4 8.6-11.1 11.1-11.1 11-9-4.5c-19.7-9.8-39.8-9.4-59.4 1.3l-6.4 3.5-50.8-50.9-50.8-50.8 2.9-4.8c1.7-2.6 4.2-8.2 5.7-12.5 2.4-6.7 2.7-9.3 2.8-19.7 0-13.7-2.2-22.2-8-31.7l-3.3-5.3 11.2-11.3c6.1-6.1 11.5-11.2 11.9-11.2.5 0 2.1.8 3.5 1.9zM433 116.5V160h-18V73h18v43.5zm-352-7.7c3.2 10.2 2.1 23.3-2.6 32.4l-1.6 3.1-11.4-11.4L54 121.5l11.2-11.3C78 97.4 77.5 97.5 81 108.8zm96.3 21.9c1.5 9.4 10.3 21 20.2 26.9 2.7 1.6 10.4 4.8 17 7 13.5 4.7 13.2 4.2 8.7 13.2-3.4 7-11.6 14.4-19 17.3-7.9 3.1-19.5 3.1-27.4 0-7.5-2.9-14.6-9.5-18.9-17.3-3.3-6-3.4-6.7-3.4-16.8 0-12.5 1.7-17.1 9.1-25.1 4.1-4.3 10.3-8.7 12.5-8.9.4 0 .9 1.7 1.2 3.7zM303.9 206c2.6 1.7 6.3 3.5 8 4.1 1.7.6 3.1 1.4 3.1 1.8 0 .4-2.4 3-5.4 6l-5.3 5.2-1.8-3.7c-2.8-5.9-5.4-16.4-4-16.4.3 0 2.7 1.4 5.4 3zm-59.1 65c3.1 1.1 6 2.4 6.6 3 .7.7-2.5 4.6-10.2 12.3L230 297.5l-11-11c-6-6-11-11.3-11-11.8 0-1.1 6.5-3.8 13-5.4 6.8-1.6 16.4-.9 23.8 1.7z"/><path d="M342.5 126.4c-3.2 3.2-4 6.9-2.5 10.7 2.8 6.6 10.9 8.1 16.1 3 3.8-3.9 3.9-8.7.3-13-2.2-2.6-3.3-3.1-7-3.1-3.4 0-5.1.6-6.9 2.4zM150.2 312c-14.9 3.9-30.7 14.4-41.7 27.8l-5.6 6.7-48.5.5-48.6.5-2.9 3.3-2.9 3.3.2 67 .3 67.1 2.8 2.4 2.8 2.4h67.5l2.7-2.8c2.3-2.4 2.7-3.6 2.7-9V475h15c19.3 0 23-1.6 23-10.1v-3.2l5 .7c9.4 1.3 17.5 4.5 33.5 13.7 20.3 11.5 56 29.1 64.6 31.7 16.1 5 33.8 5.3 48.5.8 14.7-4.4 164.9-58.8 169.8-61.4 18.4-10 27.9-29.1 23.2-46.8-5.4-20.3-23.8-32.4-44.9-29.4-3.4.5-23.3 5.7-44.1 11.5-20.9 5.8-38.1 10.5-38.2 10.5-.2 0-1.7-2.7-3.5-6-3.9-7.3-12.5-15.5-19.9-19.1-3-1.5-22.6-8.4-43.5-15.4l-38-12.8-4.5-4.7c-19-20.1-49.8-29.5-74.8-23zm29.3 19.5c11.8 2.5 22 8.2 30.6 17.3l7.4 7.8 27 9.1c53.3 18 57.6 19.6 61.5 22.4 5.3 3.8 8.8 9.4 9.6 15.2.9 6.6-3.1 14.7-8.9 18.1-8.5 5-7.6 5.2-60-11.4-33.4-10.6-48.6-15-50.4-14.5-4.3 1-7.3 4.9-7.3 9.4 0 7.8-.4 7.7 52 24.3 44.8 14.3 47.9 15.1 55.5 15.1 17 0 31.7-10.3 37-26.2l1.5-4.6 41.3-11.3c22.6-6.2 42.6-11.5 44.3-11.8 3.8-.7 11 1.2 14.8 3.9 4.3 3 8 11.8 7.3 17.4-.6 5.6-4.6 11.5-10.7 15.9-3.3 2.3-26 10.9-82 30.9-42.6 15.3-80.6 28.9-84.5 30.3-6 2.2-8.7 2.6-18.5 2.6-7.9 0-13.5-.5-18-1.7-7.8-2.1-44.6-20.1-65.5-32.1-16.1-9.2-26-13-38.7-14.8l-7.8-1.1v-80.2l5.1-6.8c5.5-7.3 14.3-14.9 21.9-19.1 10-5.5 22.3-6.9 35.5-4.1zM59 420v53H20V367h39v53zm38-9v44.1l-8.7-.3-8.8-.3-.3-42.5c-.1-23.4 0-43.1.3-43.8.3-.8 3.1-1.2 9-1.2H97v44z"/><path d="M155.9 386.9c-6.8 6.8-.8 18.4 8.5 16.7 4.8-.9 8.1-4.8 8.1-9.8 0-3.3-.6-4.5-3.3-6.9-4.4-4-9.3-4-13.3 0z"/></svg>